# xmcd
#
# Track frame offsets:
#	150
#	17012
#	35862
#	55987
#	72175
#	89350
#	104300
#	123825
#	142337
#	155075
#	169700
#	189575
#
# Disc length: 2727 seconds
#
# Revision: 0
# Processed by: cddbd v1.5.2PL0 Copyright (c) Steve Scherf et al.
# Submitted via: EasyCDDAExtractor 15.3.0.1
#
DISCID=ab0aa50c
DTITLE=ฅาราวาน - อานนท์
DYEAR=2001
DGENRE=Country
TTITLE0=จำปาตีนโต
TTITLE1=อานนท์
TTITLE2=แม้เราจะไม่พบกัน
TTITLE3=มารครองเมือง
TTITLE4=หวัง
TTITLE5=น้ำใต้น้ำตา
TTITLE6=เสี่ยว
TTITLE7=พงพนา
TTITLE8=ฤดูกาล
TTITLE9=ก้อนเกลือ
TTITLE10=สาวน้อย
TTITLE11=น้ำใต้น้ำตา (backing)
EXTD=
EXTT0=
EXTT1=
EXTT2=
EXTT3=
EXTT4=
EXTT5=
EXTT6=
EXTT7=
EXTT8=
EXTT9=
EXTT10=
EXTT11=
PLAYORDER=
